<svg xmlns="http://www.w3.org/2000/svg">
    <symbol viewBox="0 0 23 22" id="nav-toggle">
      <path d="M22.9 0H0V4H22.9V0Z"/>
      <path d="M22.9 9H0V13H22.9V9Z"/>
      <path d="M22.9 18H0V22H22.9V18Z"/>
     </symbol>
    <symbol viewBox="0 0 23 23" id="nav-open-icon">
      <path d="M22.2 2.8L19.4 0L11.1 8.3L2.8 0L0 2.8L8.3 11.1L0 19.4L2.8 22.2L11.1 13.9L19.4 22.2L22.2 19.4L13.9 11.1L22.2 2.8Z"/>
    </symbol>
    <symbol viewBox="0 0 600 57" id="intro-arrow-left">
      <path d="M249.6 23.7L0 0V57H249.6H600L249.6 0V23.7Z"/>
    </symbol>
    <symbol viewBox="0 0 600 57" id="intro-arrow-right">
      <path d="M350.4 23.7V0L0 57H350.4H599.9V0L350.4 23.7Z"/>
    </symbol>
    <symbol viewBox="0 0 78 72" id="advantages-home-icon">
      <path d="M30.8784 64.9389H47.3768V41.1709H30.8784V64.9389ZM44.3865 62.0549H33.8688V44.0549H44.2834V62.0549H44.3865Z"/>
      <path d="M75.3211 39.1823L77.4865 37.0939L67.2781 27.2486V0.39779H53.0482V13.5249L38.9214 0L0.459473 37.1934L2.62489 39.2818L10.6679 31.5249V69.116H6.64638V72H72.537V69.116H67.2781V31.4254L75.3211 39.1823ZM56.0385 3.38122H64.1846V24.3646L56.0385 16.5083V3.38122ZM64.2878 69.0166H13.7613V28.5414L38.9214 4.1768L64.1846 28.5414V69.0166H64.2878Z"/>
      <path d="M31.1879 27.0491C31.1879 31.3253 34.7969 34.806 39.1277 34.806C43.5617 34.806 47.1707 31.3253 47.1707 27.0491C47.1707 22.7728 43.5617 19.3916 39.1277 19.3916C34.6938 19.3916 31.1879 22.7728 31.1879 27.0491ZM39.1277 22.0767C41.9118 22.0767 44.2835 24.2645 44.2835 27.0491C44.2835 29.7341 42.015 32.0214 39.1277 32.0214C36.3436 32.0214 33.972 29.8336 33.972 27.0491C33.972 24.364 36.3436 22.0767 39.1277 22.0767Z"/>
      <path d="M20.9794 41.1709H17.8859V45.0493H20.9794V41.1709Z"/>
      <path d="M27.0631 41.1709H23.9697V45.0493H27.0631V41.1709Z"/>
      <path d="M20.9794 47.1387H17.8859V51.0171H20.9794V47.1387Z"/>
      <path d="M27.0631 47.1387H23.9697V51.0171H27.0631V47.1387Z"/>
      <path d="M53.8731 41.1709H50.7797V45.0493H53.8731V41.1709Z"/>
      <path d="M60.06 41.1709H56.9666V45.0493H60.06V41.1709Z"/>
      <path d="M53.8731 47.1387H50.7797V51.0171H53.8731V47.1387Z"/>
      <path d="M60.06 47.1387H56.9666V51.0171H60.06V47.1387Z"/>
    </symbol>
    <symbol viewBox="0 0 82 68" id="advantages-burger-icon">
      <path d="M76.5286 45.3324H5.36029C2.8336 45.3324 0.833313 47.3034 0.833313 49.57V53.0192C0.833313 55.2858 2.8336 57.1582 5.36029 57.1582H6.41307V58.1437C6.41307 63.5639 11.1506 67.9 16.8356 67.9H65.0532C70.8435 67.9 75.4758 63.4653 75.4758 58.1437V57.1582H76.5286C78.95 57.1582 81.0555 55.2858 81.0555 52.9206V49.4714C81.0555 47.3034 79.0553 45.3324 76.5286 45.3324ZM72.4227 58.1437C72.4227 61.8886 69.1591 64.9436 65.1585 64.9436H16.7304C12.7298 64.9436 9.46615 61.8886 9.46615 58.1437V57.1582H72.4227V58.1437ZM77.8972 52.9206C77.8972 53.6105 77.2655 54.2018 76.5286 54.2018H5.36029C4.62334 54.2018 3.99167 53.6105 3.99167 52.9206V49.4714C3.99167 48.8801 4.62334 48.2889 5.36029 48.2889H76.6338C77.3708 48.2889 78.0025 48.8801 78.0025 49.57V52.9206H77.8972Z"/>
      <path d="M17.8885 37.3496L23.5735 41.2915L29.3639 37.3496L35.1542 41.2915L40.9445 37.3496L46.6295 41.2915L52.4198 37.3496L58.2102 41.2915L64.0005 37.3496L69.7908 41.2915L76.4233 36.6597L74.6336 34.2946L69.7908 37.5467L64.0005 33.6047L58.2102 37.5467L52.4198 33.6047L46.6295 37.5467L40.9445 33.6047L35.1542 37.5467L29.3639 33.6047L23.5735 37.5467L17.8885 33.6047L12.0982 37.5467L7.25536 34.2946L5.36035 36.6597L12.0982 41.2915L17.8885 37.3496Z"/>
      <path d="M75.4757 30.6486C75.4757 30.0573 75.581 28.0864 75.4757 27.6922C74.7388 12.3186 59.5787 0 40.9444 0C22.3101 0 7.04469 12.3186 6.30774 27.6922C6.30774 28.0864 6.30774 30.0573 6.30774 30.6486H75.4757ZM40.9444 2.95646C57.7889 2.95646 71.6857 13.9939 72.3174 27.6922H9.46609C10.203 13.9939 24.0998 2.95646 40.9444 2.95646Z"/>
      <path d="M40.9444 16.7532C42.1073 16.7532 43.05 15.8708 43.05 14.7823C43.05 13.6937 42.1073 12.8113 40.9444 12.8113C39.7816 12.8113 38.8389 13.6937 38.8389 14.7823C38.8389 15.8708 39.7816 16.7532 40.9444 16.7532Z"/>
      <path d="M32.5221 11.924C33.685 11.924 34.6277 11.0416 34.6277 9.95303C34.6277 8.86449 33.685 7.98206 32.5221 7.98206C31.3593 7.98206 30.4166 8.86449 30.4166 9.95303C30.4166 11.0416 31.3593 11.924 32.5221 11.924Z"/>
      <path d="M49.3667 11.924C50.5296 11.924 51.4723 11.0416 51.4723 9.95303C51.4723 8.86449 50.5296 7.98206 49.3667 7.98206C48.2039 7.98206 47.2612 8.86449 47.2612 9.95303C47.2612 11.0416 48.2039 11.924 49.3667 11.924Z"/>
    </symbol>
    <symbol viewBox="0 0 67 75" id="advantages-gift-icon">
      <path d="M64.016 22.1167H63.9104H38.2583C52.615 15.3189 53.7762 11.0202 53.2484 8.62098C52.0872 4.72221 47.3368 1.72316 42.9031 3.32266C37.0971 5.42199 35.5136 13.6194 33.9302 19.5175C31.9245 13.5194 30.0243 5.92183 25.485 2.02307C24.2183 0.923414 22.3181 -0.176239 19.4679 0.0236982C15.2453 0.423572 9.22814 5.32202 11.7617 10.8203C14.0841 16.1186 21.7903 19.5175 26.9629 22.2167H3.42211C1.73308 22.2167 0.466309 23.5163 0.466309 25.0158V36.2123C0.466309 37.8118 1.83864 39.0114 3.42211 39.0114H3.7388V75H63.9104V39.0114H64.016C65.705 39.0114 66.9718 37.7118 66.9718 36.2123V25.0158C66.9718 23.4163 65.5994 22.1167 64.016 22.1167ZM44.5922 5.82187C46.809 5.52196 49.7648 7.12146 50.0815 9.02085C50.5038 11.72 46.5979 14.2192 44.8033 15.3189C42.1642 17.0183 39.6306 17.918 37.2027 19.3176C38.0472 15.6188 39.8418 6.42168 44.5922 5.82187ZM20.7346 15.6188C18.4122 14.1192 13.9785 11.2202 14.0841 7.9212C14.1897 4.32234 20.1013 1.42326 23.2682 4.1224C27.2796 7.42136 29.1798 15.1189 30.6577 20.5172C27.2796 18.9177 24.1127 17.7181 20.7346 15.6188ZM26.9629 72.0009H6.80016V39.0114H26.9629V72.0009ZM26.9629 36.0123H3.63324V25.1158H26.9629V36.0123ZM37.5194 72.0009H30.0243V25.1158H37.5194V72.0009ZM60.7435 72.0009H40.6863V39.0114H60.8491V72.0009H60.7435ZM63.8049 36.0123H40.6863V25.1158H63.8049V36.0123Z"/>
    </symbol>
        <symbol viewBox="0 0 18 18" id="phone-icon">
      <path d="M3.6 7.8C5 10.6 7.4 12.9 10.2 14.4L12.4 12.2C12.7 11.9 13.1 11.8 13.4 12C14.5 12.4 15.7 12.6 17 12.6C17.6 12.6 18 13 18 13.6V17C18 17.6 17.6 18 17 18C7.6 18 0 10.4 0 1C0 0.4 0.4 0 1 0H4.5C5.1 0 5.5 0.4 5.5 1C5.5 2.2 5.7 3.4 6.1 4.6C6.2 4.9 6.1 5.3 5.9 5.6L3.6 7.8Z"/>
    </symbol>
    <symbol viewBox="0 0 16 12" id="email-icon">
      <path d="M8 8C7.7 8 7.5 7.9 7 7.7L0 4V11C0 11.5 0.5 12 1 12H15C15.5 12 16 11.5 16 11V4L9 7.7C8.5 7.9 8.3 8 8 8ZM15 0H1C0.5 0 0 0.5 0 1V1.8L8 6L16 1.8V1C16 0.5 15.5 0 15 0Z"/>
    </symbol>
        <symbol viewBox="0 0 23 21" id="like-counter">
      <path d="M12.9636 3.78L12.3364 6.825L11.7091 9.45H14.3227H20.8045V11.55C20.8045 11.55 20.8045 11.55 20.8045 11.655L17.7727 18.9H8.36364V8.4L12.9636 3.78ZM2.09091 10.5V18.9V10.5ZM13.8 0L6.9 6.93C6.48182 7.245 6.27273 7.77 6.27273 8.4V18.9C6.27273 20.055 7.21364 21 8.36364 21H17.7727C18.6091 21 19.3409 20.475 19.6545 19.74L22.7909 12.285C22.8955 12.075 22.8955 11.76 22.8955 11.55V9.45H23C23 8.295 22.0591 7.35 20.9091 7.35H14.3227L15.3682 2.52V2.205C15.3682 1.785 15.1591 1.365 14.95 1.05L13.8 0ZM4.18182 8.4H0V21H4.18182V8.4Z"/>
    </symbol>
    <symbol viewBox="0 0 24 14" id="footer-icon-vk">
      <path d="M23.45 0.948C23.616 0.402 23.45 0 22.655 0H20.03C19.362 0 19.054 0.347 18.887 0.73C18.887 0.73 17.552 3.926 15.661 6.002C15.049 6.604 14.771 6.795 14.437 6.795C14.27 6.795 14.019 6.604 14.019 6.057V0.948C14.019 0.292 13.835 0 13.279 0H9.151C8.734 0 8.483 0.304 8.483 0.593C8.483 1.214 9.429 1.358 9.526 3.106V6.904C9.526 7.737 9.373 7.888 9.039 7.888C8.149 7.888 5.984 4.677 4.699 1.003C4.45 0.288 4.198 0 3.527 0H0.9C0.15 0 0 0.347 0 0.73C0 1.412 0.89 4.8 4.145 9.281C6.315 12.341 9.37 14 12.153 14C13.822 14 14.028 13.632 14.028 12.997V10.684C14.028 9.947 14.186 9.8 14.715 9.8C15.105 9.8 15.772 9.992 17.33 11.467C19.11 13.216 19.403 14 20.405 14H23.03C23.78 14 24.156 13.632 23.94 12.904C23.702 12.18 22.852 11.129 21.725 9.882C21.113 9.172 20.195 8.407 19.916 8.024C19.527 7.533 19.638 7.314 19.916 6.877C19.916 6.877 23.116 2.451 23.449 0.948H23.45Z"/>
    </symbol>
    <symbol viewBox="0 0 22 18" id="footer-icon-tg">
      <path d="M21.4393 1.62225L18.2705 16.566C18.0313 17.6205 17.408 17.883 16.5223 17.3865L11.6938 13.8285L9.36427 16.0695C9.10627 16.3275 8.89102 16.5428 8.39377 16.5428L8.74102 11.6258L17.6893 3.54C18.0785 3.1935 17.6045 3.00075 17.0848 3.348L6.02227 10.314L1.25977 8.823C0.224021 8.49975 0.205271 7.78725 1.47577 7.29L20.1035 0.113253C20.966 -0.209997 21.7205 0.305253 21.4393 1.623V1.62225Z"/>
    </symbol>
    <symbol viewBox="0 0 20 14" id="footer-icon-youtube">
      <path d="M17.1813 0H2.81331C1.30618 0 0 1.3 0 2.8V11.1C0 12.7 1.30618 14 2.81331 14H17.1813C18.7889 14 19.9946 12.7 19.9946 11.2V2.8C20.095 1.3 18.7889 0 17.1813 0ZM7.03326 10.4V3.6L13.8656 7L7.03326 10.4Z"/>
    </symbol>
    <symbol viewBox="0 0 27 36" id="htmlacademy-logo">
      <path d="M13.65 0.949951H13.55L0.0500488 2.34995V27.05L13.55 35.0499L26.95 27.05V2.34995L13.65 0.949951ZM25.05 13.05L13.55 6.24995V6.14995H13.45L13.35 6.04995V6.14995L1.95005 13.05V4.04995L13.45 2.84995L25.05 4.04995V13.05ZM13.45 7.74995L24.95 14.45L20.45 17.05L13.35 12.85V14.25L19.25 17.75L18.35 18.25L13.35 15.25V16.65L17.15 18.95L16.35 19.45L13.35 17.65V19.05L15.25 20.15L13.45 21.25L2.05005 14.55L13.45 7.74995ZM1.95005 16.05L13.35 22.85V23.85L5.45005 19.15V20.55L13.45 25.35V26.45L5.45005 21.75V23.15L13.45 27.95L21.55 23.05V17.85L24.95 15.85V25.85L13.45 32.75L1.95005 25.95V16.05Z"/>
    </symbol>
</svg>
